<svg xmlns="http://www.w3.org/2000/svg" width="63" height="42" viewBox="0 0 63 42" fill="none"><path d="M8.77066 8.26331L1.00038 5.34169L1.0063 34.4305L8.77066 30.9802V8.26331Z" fill="#7960FF"></path><path d="M8.77066 8.26331L1.00038 5.34169L1.0063 34.4305L8.77066 30.9802V8.26331Z" fill="#7960FF"></path><path d="M8.77066 8.26331L1.00038 5.34169L1.0063 34.4305L8.77066 30.9802V8.26331Z" stroke="#0E0D24" stroke-width="0.2"></path><path d="M8.77066 8.26331L1.00038 5.34169L1.0063 34.4305L8.77066 30.9802V8.26331Z" stroke="#0E0D24" stroke-width="0.2"></path><path d="M8.77066 3.92162L1.00038 1L1.0063 4.69999L8.77066 7.6467V3.92162Z" fill="#7960FF"></path><path d="M8.77066 3.92162L1.00038 1L1.0063 4.69999L8.77066 7.6467V3.92162Z" fill="#7960FF"></path><path d="M8.77066 3.92162L1.00038 1L1.0063 4.69999L8.77066 7.6467V3.92162Z" stroke="#0E0D24" stroke-width="0.2"></path><path d="M8.77066 3.92162L1.00038 1L1.0063 4.69999L8.77066 7.6467V3.92162Z" stroke="#0E0D24" stroke-width="0.2"></path><path d="M28.9721 34.7842L24.4042 36.8138L14.9435 33.2413L28.9721 27.9739V34.7842Z" fill="#7960FF"></path><path d="M5.56793 20.323L21.2019 26.2266L21.2087 18.9025L14.986 16.1368L5.56793 20.323Z" fill="#7960FF"></path><path d="M28.9721 27.9739L21.2015 30.8955L21.2074 18.9006L28.9718 22.351L28.9721 27.9739Z" fill="#7960FF"></path><path d="M1.00003 22.3527L5.56793 20.323L15.031 23.8964L1.00003 29.1629V22.3527Z" fill="#7960FF"></path><path d="M24.4042 36.8138L8.77027 30.9103L8.76339 38.2343L14.9861 41L24.4042 36.8138Z" fill="#7960FF"></path><path d="M1.00003 29.1629L8.77061 26.2413L8.76469 38.2362L1.00033 34.7858L1.00003 29.1629Z" fill="#7960FF"></path><path d="M14.9435 33.2413L21.202 30.8965L21.2019 26.2265M14.9435 33.2413L28.9721 27.9739M14.9435 33.2413L24.4042 36.8138M14.9435 33.2413L8.77027 30.9103M24.4042 36.8138L28.9721 34.7842V27.9739M24.4042 36.8138L8.77027 30.9103M24.4042 36.8138L14.9861 41L8.76339 38.2343L8.77027 30.9103M28.9721 27.9739L21.2015 30.8955L21.2074 18.9006L28.9718 22.351L28.9721 27.9739ZM15.031 23.8964L21.2019 26.2265M15.031 23.8964L8.77016 26.2404L8.77027 30.9103M15.031 23.8964L1.00003 29.1629M15.031 23.8964L5.56793 20.323M21.2019 26.2265L5.56793 20.323M21.2019 26.2265L21.2087 18.9025L14.986 16.1368L5.56793 20.323M5.56793 20.323L1.00003 22.3527V29.1629M1.00003 29.1629L8.77061 26.2413L8.76469 38.2362L1.00033 34.7858L1.00003 29.1629Z" stroke="#0E0D24" stroke-width="0.2"></path><path d="M42.3367 8.2632L34.5664 5.34158L34.5723 34.4304L42.3367 30.9801V8.2632Z" fill="#7960FF"></path><path d="M42.3367 8.2632L34.5664 5.34158L34.5723 34.4304L42.3367 30.9801V8.2632Z" fill="#7960FF"></path><path d="M42.3367 8.2632L34.5664 5.34158L34.5723 34.4304L42.3367 30.9801V8.2632Z" stroke="#0E0D24" stroke-width="0.2"></path><path d="M42.3367 8.2632L34.5664 5.34158L34.5723 34.4304L42.3367 30.9801V8.2632Z" stroke="#0E0D24" stroke-width="0.2"></path><path d="M62.5381 34.784L57.9702 36.8137L48.5095 33.2412L62.5381 27.9738V34.784Z" fill="#7960FF"></path><path d="M39.1339 20.3229L54.7679 26.2264L54.7747 18.9024L48.5521 16.1367L39.1339 20.3229Z" fill="#7960FF"></path><path d="M62.5378 27.9738L54.7675 30.8954L54.7734 18.9005L62.5378 22.3509V27.9738Z" fill="#7960FF"></path><path d="M34.566 22.3525L39.1339 20.3229L48.597 23.8963L34.566 29.1628V22.3525Z" fill="#7960FF"></path><path d="M57.9702 36.8137L42.3363 30.9102L42.3294 38.2342L48.5521 40.9999L57.9702 36.8137Z" fill="#7960FF"></path><path d="M34.5663 29.1628L42.3366 26.2412L42.3307 38.2361L34.5663 34.7857V29.1628Z" fill="#7960FF"></path><path d="M48.5095 33.2412L54.768 30.8963L54.7679 26.2264M48.5095 33.2412L62.5381 27.9738V34.784L57.9702 36.8137M48.5095 33.2412L57.9702 36.8137M48.5095 33.2412L42.3363 30.9102M57.9702 36.8137L42.3363 30.9102M57.9702 36.8137L48.5521 40.9999L42.3294 38.2342L42.3363 30.9102M48.597 23.8963L54.7679 26.2264M48.597 23.8963L42.3362 26.2403L42.3363 30.9102M48.597 23.8963L34.566 29.1628V22.3525L39.1339 20.3229M48.597 23.8963L39.1339 20.3229M54.7679 26.2264L39.1339 20.3229M54.7679 26.2264L54.7747 18.9024L48.5521 16.1367L39.1339 20.3229M54.7675 30.8954L62.5378 27.9738V22.3509L54.7734 18.9005L54.7675 30.8954ZM42.3366 26.2412L34.5663 29.1628V34.7857L42.3307 38.2361L42.3366 26.2412Z" stroke="#0E0D24" stroke-width="0.2"></path></svg>